<mxfile host="Electron" modified="2025-04-07T08:17:29.092Z" agent="Mozilla/5.0 (Windows NT 10.0; Win64; x64) AppleWebKit/537.36 (KHTML, like Gecko) draw.io/24.5.3 Chrome/124.0.6367.207 Electron/30.0.6 Safari/537.36" etag="CrW-ky63GTabl4B-9OnP" version="24.5.3" type="device">
  <diagram name="Page-1" id="IsJR8FDoAbxO4GYFtRp9">
    <mxGraphModel dx="1050" dy="621" grid="1" gridSize="10" guides="1" tooltips="1" connect="1" arrows="1" fold="1" page="1" pageScale="1" pageWidth="850" pageHeight="1100" math="0" shadow="0">
      <root>
        <mxCell id="0" />
        <mxCell id="1" parent="0" />
        <mxCell id="jjxcdkxq4oABtmEfKF7z-58" style="edgeStyle=orthogonalEdgeStyle;rounded=0;orthogonalLoop=1;jettySize=auto;html=1;exitX=0.5;exitY=0;exitDx=0;exitDy=0;entryX=0.75;entryY=0;entryDx=0;entryDy=0;" parent="1" source="_XvTzFoEMZY5nAblzIYl-1" target="_XvTzFoEMZY5nAblzIYl-2" edge="1">
          <mxGeometry relative="1" as="geometry">
            <Array as="points">
              <mxPoint x="201" y="50" />
              <mxPoint x="381" y="50" />
            </Array>
          </mxGeometry>
        </mxCell>
        <mxCell id="jjxcdkxq4oABtmEfKF7z-85" style="edgeStyle=orthogonalEdgeStyle;rounded=0;orthogonalLoop=1;jettySize=auto;html=1;exitX=0.25;exitY=1;exitDx=0;exitDy=0;startArrow=classic;startFill=1;endArrow=box;endFill=0;" parent="1" source="_XvTzFoEMZY5nAblzIYl-1" edge="1">
          <mxGeometry relative="1" as="geometry">
            <mxPoint x="181" y="200" as="targetPoint" />
          </mxGeometry>
        </mxCell>
        <mxCell id="_XvTzFoEMZY5nAblzIYl-1" value="CT03&lt;div&gt;(BL scale u)&lt;/div&gt;" style="rounded=0;whiteSpace=wrap;html=1;fillColor=#f8cecc;strokeColor=#b85450;" parent="1" vertex="1">
          <mxGeometry x="161" y="80.9" width="80" height="80" as="geometry" />
        </mxCell>
        <mxCell id="jjxcdkxq4oABtmEfKF7z-60" style="edgeStyle=orthogonalEdgeStyle;rounded=0;orthogonalLoop=1;jettySize=auto;html=1;exitX=0.5;exitY=1;exitDx=0;exitDy=0;entryX=0.75;entryY=0;entryDx=0;entryDy=0;" parent="1" source="_XvTzFoEMZY5nAblzIYl-2" target="_XvTzFoEMZY5nAblzIYl-6" edge="1">
          <mxGeometry relative="1" as="geometry" />
        </mxCell>
        <mxCell id="_XvTzFoEMZY5nAblzIYl-2" value="CT13&lt;div&gt;(Vec Add)&lt;/div&gt;" style="rounded=0;whiteSpace=wrap;html=1;fillColor=#ffe6cc;strokeColor=#d79b00;" parent="1" vertex="1">
          <mxGeometry x="321" y="80.9" width="80" height="80" as="geometry" />
        </mxCell>
        <mxCell id="jjxcdkxq4oABtmEfKF7z-73" style="edgeStyle=orthogonalEdgeStyle;rounded=0;orthogonalLoop=1;jettySize=auto;html=1;exitX=0.5;exitY=1;exitDx=0;exitDy=0;entryX=0.25;entryY=0;entryDx=0;entryDy=0;" parent="1" source="_XvTzFoEMZY5nAblzIYl-3" target="_XvTzFoEMZY5nAblzIYl-7" edge="1">
          <mxGeometry relative="1" as="geometry" />
        </mxCell>
        <mxCell id="_XvTzFoEMZY5nAblzIYl-3" value="CT23&lt;div&gt;(&lt;span style=&quot;background-color: initial;&quot;&gt;Vec Add&lt;/span&gt;&lt;span style=&quot;background-color: initial;&quot;&gt;)&lt;/span&gt;&lt;/div&gt;" style="rounded=0;whiteSpace=wrap;html=1;fillColor=#ffe6cc;strokeColor=#d79b00;" parent="1" vertex="1">
          <mxGeometry x="479" y="80.9" width="80" height="80" as="geometry" />
        </mxCell>
        <mxCell id="jjxcdkxq4oABtmEfKF7z-54" style="edgeStyle=orthogonalEdgeStyle;rounded=0;orthogonalLoop=1;jettySize=auto;html=1;exitX=0.25;exitY=1;exitDx=0;exitDy=0;startArrow=classic;startFill=1;endArrow=diamond;endFill=1;" parent="1" source="_XvTzFoEMZY5nAblzIYl-4" edge="1">
          <mxGeometry relative="1" as="geometry">
            <mxPoint x="659" y="200" as="targetPoint" />
          </mxGeometry>
        </mxCell>
        <mxCell id="jjxcdkxq4oABtmEfKF7z-86" style="edgeStyle=orthogonalEdgeStyle;rounded=0;orthogonalLoop=1;jettySize=auto;html=1;exitX=0.75;exitY=1;exitDx=0;exitDy=0;startArrow=classic;startFill=1;endArrow=box;endFill=0;" parent="1" source="_XvTzFoEMZY5nAblzIYl-4" edge="1">
          <mxGeometry relative="1" as="geometry">
            <mxPoint x="699" y="200" as="targetPoint" />
          </mxGeometry>
        </mxCell>
        <mxCell id="_XvTzFoEMZY5nAblzIYl-4" value="CT33&lt;div&gt;(&lt;span style=&quot;background-color: initial;&quot;&gt;BL scale u&lt;/span&gt;&lt;span style=&quot;background-color: initial;&quot;&gt;)&lt;/span&gt;&lt;/div&gt;" style="rounded=0;whiteSpace=wrap;html=1;fillColor=#f8cecc;strokeColor=#b85450;" parent="1" vertex="1">
          <mxGeometry x="639" y="80.9" width="80" height="80" as="geometry" />
        </mxCell>
        <mxCell id="jjxcdkxq4oABtmEfKF7z-47" style="edgeStyle=orthogonalEdgeStyle;rounded=0;orthogonalLoop=1;jettySize=auto;html=1;exitX=0.75;exitY=1;exitDx=0;exitDy=0;startArrow=classic;startFill=1;endArrow=oval;endFill=1;" parent="1" source="_XvTzFoEMZY5nAblzIYl-5" edge="1">
          <mxGeometry relative="1" as="geometry">
            <mxPoint x="221" y="360" as="targetPoint" />
          </mxGeometry>
        </mxCell>
        <mxCell id="jjxcdkxq4oABtmEfKF7z-59" style="edgeStyle=orthogonalEdgeStyle;rounded=0;orthogonalLoop=1;jettySize=auto;html=1;exitX=0.5;exitY=0;exitDx=0;exitDy=0;entryX=0.25;entryY=0;entryDx=0;entryDy=0;" parent="1" source="_XvTzFoEMZY5nAblzIYl-5" target="_XvTzFoEMZY5nAblzIYl-2" edge="1">
          <mxGeometry relative="1" as="geometry">
            <Array as="points">
              <mxPoint x="201" y="220" />
              <mxPoint x="260" y="220" />
              <mxPoint x="260" y="61" />
              <mxPoint x="341" y="61" />
            </Array>
          </mxGeometry>
        </mxCell>
        <mxCell id="jjxcdkxq4oABtmEfKF7z-84" style="edgeStyle=orthogonalEdgeStyle;rounded=0;orthogonalLoop=1;jettySize=auto;html=1;exitX=0.25;exitY=1;exitDx=0;exitDy=0;startArrow=classic;startFill=1;endArrow=box;endFill=0;" parent="1" source="_XvTzFoEMZY5nAblzIYl-5" edge="1">
          <mxGeometry relative="1" as="geometry">
            <mxPoint x="181" y="360" as="targetPoint" />
          </mxGeometry>
        </mxCell>
        <mxCell id="_XvTzFoEMZY5nAblzIYl-5" value="CT02&lt;div&gt;(&lt;span style=&quot;background-color: initial;&quot;&gt;BL scale v&lt;/span&gt;&lt;span style=&quot;background-color: initial;&quot;&gt;)&lt;/span&gt;&lt;/div&gt;" style="rounded=0;whiteSpace=wrap;html=1;fillColor=#f8cecc;strokeColor=#b85450;" parent="1" vertex="1">
          <mxGeometry x="161" y="240.89999999999998" width="80" height="80" as="geometry" />
        </mxCell>
        <mxCell id="jjxcdkxq4oABtmEfKF7z-62" style="edgeStyle=orthogonalEdgeStyle;rounded=0;orthogonalLoop=1;jettySize=auto;html=1;exitX=0.5;exitY=1;exitDx=0;exitDy=0;entryX=0.75;entryY=0;entryDx=0;entryDy=0;" parent="1" source="_XvTzFoEMZY5nAblzIYl-6" target="_XvTzFoEMZY5nAblzIYl-13" edge="1">
          <mxGeometry relative="1" as="geometry">
            <Array as="points">
              <mxPoint x="361" y="360" />
              <mxPoint x="290" y="360" />
              <mxPoint x="290" y="540" />
              <mxPoint x="220" y="540" />
            </Array>
          </mxGeometry>
        </mxCell>
        <mxCell id="jjxcdkxq4oABtmEfKF7z-63" style="edgeStyle=orthogonalEdgeStyle;rounded=0;orthogonalLoop=1;jettySize=auto;html=1;exitX=0.5;exitY=1;exitDx=0;exitDy=0;entryX=0.25;entryY=0;entryDx=0;entryDy=0;" parent="1" source="_XvTzFoEMZY5nAblzIYl-6" target="_XvTzFoEMZY5nAblzIYl-10" edge="1">
          <mxGeometry relative="1" as="geometry">
            <Array as="points">
              <mxPoint x="361" y="361" />
              <mxPoint x="341" y="361" />
            </Array>
          </mxGeometry>
        </mxCell>
        <mxCell id="jjxcdkxq4oABtmEfKF7z-64" value="(broadcast, 2)" style="edgeLabel;html=1;align=center;verticalAlign=middle;resizable=0;points=[];" parent="jjxcdkxq4oABtmEfKF7z-63" vertex="1" connectable="0">
          <mxGeometry x="-0.59" relative="1" as="geometry">
            <mxPoint as="offset" />
          </mxGeometry>
        </mxCell>
        <mxCell id="_XvTzFoEMZY5nAblzIYl-6" value="CT12&lt;div&gt;(&lt;span style=&quot;background-color: initial;&quot;&gt;Vec Add&lt;/span&gt;&lt;span style=&quot;background-color: initial;&quot;&gt;)&lt;/span&gt;&lt;/div&gt;" style="rounded=0;whiteSpace=wrap;html=1;fillColor=#ffe6cc;strokeColor=#d79b00;" parent="1" vertex="1">
          <mxGeometry x="321" y="240.89999999999998" width="80" height="80" as="geometry" />
        </mxCell>
        <mxCell id="jjxcdkxq4oABtmEfKF7z-67" style="edgeStyle=orthogonalEdgeStyle;rounded=0;orthogonalLoop=1;jettySize=auto;html=1;exitX=0.5;exitY=1;exitDx=0;exitDy=0;entryX=0.75;entryY=0;entryDx=0;entryDy=0;" parent="1" source="_XvTzFoEMZY5nAblzIYl-7" target="_XvTzFoEMZY5nAblzIYl-11" edge="1">
          <mxGeometry relative="1" as="geometry">
            <Array as="points">
              <mxPoint x="519" y="360" />
              <mxPoint x="539" y="360" />
            </Array>
          </mxGeometry>
        </mxCell>
        <mxCell id="jjxcdkxq4oABtmEfKF7z-68" style="edgeStyle=orthogonalEdgeStyle;rounded=0;orthogonalLoop=1;jettySize=auto;html=1;exitX=0.5;exitY=1;exitDx=0;exitDy=0;entryX=0.25;entryY=0;entryDx=0;entryDy=0;" parent="1" source="_XvTzFoEMZY5nAblzIYl-7" target="_XvTzFoEMZY5nAblzIYl-18" edge="1">
          <mxGeometry relative="1" as="geometry">
            <Array as="points">
              <mxPoint x="519" y="360" />
              <mxPoint x="580" y="360" />
              <mxPoint x="580" y="490" />
              <mxPoint x="610" y="490" />
              <mxPoint x="610" y="530" />
              <mxPoint x="659" y="530" />
            </Array>
          </mxGeometry>
        </mxCell>
        <mxCell id="jjxcdkxq4oABtmEfKF7z-70" value="(broadcast, 2)" style="edgeLabel;html=1;align=center;verticalAlign=middle;resizable=0;points=[];" parent="jjxcdkxq4oABtmEfKF7z-68" vertex="1" connectable="0">
          <mxGeometry x="-0.9068" y="-1" relative="1" as="geometry">
            <mxPoint as="offset" />
          </mxGeometry>
        </mxCell>
        <mxCell id="_XvTzFoEMZY5nAblzIYl-7" value="CT22&lt;div&gt;(&lt;span style=&quot;background-color: initial;&quot;&gt;Vec Add&lt;/span&gt;&lt;span style=&quot;background-color: initial;&quot;&gt;)&lt;/span&gt;&lt;/div&gt;" style="rounded=0;whiteSpace=wrap;html=1;fillColor=#ffe6cc;strokeColor=#d79b00;" parent="1" vertex="1">
          <mxGeometry x="479" y="240.89999999999998" width="80" height="80" as="geometry" />
        </mxCell>
        <mxCell id="jjxcdkxq4oABtmEfKF7z-55" style="edgeStyle=orthogonalEdgeStyle;rounded=0;orthogonalLoop=1;jettySize=auto;html=1;exitX=0.25;exitY=1;exitDx=0;exitDy=0;startArrow=classic;startFill=1;endArrow=diamond;endFill=1;" parent="1" source="_XvTzFoEMZY5nAblzIYl-8" edge="1">
          <mxGeometry relative="1" as="geometry">
            <mxPoint x="659" y="360" as="targetPoint" />
          </mxGeometry>
        </mxCell>
        <mxCell id="jjxcdkxq4oABtmEfKF7z-72" style="edgeStyle=orthogonalEdgeStyle;rounded=0;orthogonalLoop=1;jettySize=auto;html=1;exitX=0.5;exitY=0;exitDx=0;exitDy=0;entryX=0.75;entryY=0;entryDx=0;entryDy=0;" parent="1" source="_XvTzFoEMZY5nAblzIYl-8" target="_XvTzFoEMZY5nAblzIYl-3" edge="1">
          <mxGeometry relative="1" as="geometry">
            <Array as="points">
              <mxPoint x="679" y="220" />
              <mxPoint x="620" y="220" />
              <mxPoint x="620" y="61" />
              <mxPoint x="539" y="61" />
            </Array>
          </mxGeometry>
        </mxCell>
        <mxCell id="jjxcdkxq4oABtmEfKF7z-87" style="edgeStyle=orthogonalEdgeStyle;rounded=0;orthogonalLoop=1;jettySize=auto;html=1;exitX=0.75;exitY=1;exitDx=0;exitDy=0;startArrow=classic;startFill=1;endArrow=box;endFill=0;" parent="1" source="_XvTzFoEMZY5nAblzIYl-8" edge="1">
          <mxGeometry relative="1" as="geometry">
            <mxPoint x="699" y="360" as="targetPoint" />
          </mxGeometry>
        </mxCell>
        <mxCell id="_XvTzFoEMZY5nAblzIYl-8" value="CT32&lt;div&gt;(&lt;span style=&quot;background-color: initial;&quot;&gt;BL scale v&lt;/span&gt;&lt;span style=&quot;background-color: initial;&quot;&gt;)&lt;/span&gt;&lt;/div&gt;" style="rounded=0;whiteSpace=wrap;html=1;fillColor=#f8cecc;strokeColor=#b85450;" parent="1" vertex="1">
          <mxGeometry x="639" y="240.89999999999998" width="80" height="80" as="geometry" />
        </mxCell>
        <mxCell id="jjxcdkxq4oABtmEfKF7z-48" style="edgeStyle=orthogonalEdgeStyle;rounded=0;orthogonalLoop=1;jettySize=auto;html=1;exitX=0.75;exitY=1;exitDx=0;exitDy=0;startArrow=classic;startFill=1;endArrow=oval;endFill=1;" parent="1" source="_XvTzFoEMZY5nAblzIYl-9" edge="1">
          <mxGeometry relative="1" as="geometry">
            <mxPoint x="221" y="520" as="targetPoint" />
          </mxGeometry>
        </mxCell>
        <mxCell id="jjxcdkxq4oABtmEfKF7z-61" style="edgeStyle=orthogonalEdgeStyle;rounded=0;orthogonalLoop=1;jettySize=auto;html=1;exitX=0.5;exitY=0;exitDx=0;exitDy=0;entryX=0.25;entryY=0;entryDx=0;entryDy=0;" parent="1" source="_XvTzFoEMZY5nAblzIYl-9" target="_XvTzFoEMZY5nAblzIYl-6" edge="1">
          <mxGeometry relative="1" as="geometry">
            <Array as="points">
              <mxPoint x="201" y="380" />
              <mxPoint x="270" y="380" />
              <mxPoint x="270" y="221" />
              <mxPoint x="341" y="221" />
            </Array>
          </mxGeometry>
        </mxCell>
        <mxCell id="jjxcdkxq4oABtmEfKF7z-83" style="edgeStyle=orthogonalEdgeStyle;rounded=0;orthogonalLoop=1;jettySize=auto;html=1;exitX=0.25;exitY=1;exitDx=0;exitDy=0;startArrow=classic;startFill=1;endArrow=box;endFill=0;" parent="1" source="_XvTzFoEMZY5nAblzIYl-9" edge="1">
          <mxGeometry relative="1" as="geometry">
            <mxPoint x="181" y="520" as="targetPoint" />
          </mxGeometry>
        </mxCell>
        <mxCell id="_XvTzFoEMZY5nAblzIYl-9" value="CT01&lt;br&gt;(BL scale w)" style="rounded=0;whiteSpace=wrap;html=1;fillColor=#f8cecc;strokeColor=#b85450;" parent="1" vertex="1">
          <mxGeometry x="161" y="400.9" width="80" height="80" as="geometry" />
        </mxCell>
        <mxCell id="jjxcdkxq4oABtmEfKF7z-51" style="edgeStyle=orthogonalEdgeStyle;rounded=0;orthogonalLoop=1;jettySize=auto;html=1;exitX=0.75;exitY=0;exitDx=0;exitDy=0;startArrow=classic;startFill=1;endArrow=oval;endFill=1;" parent="1" source="_XvTzFoEMZY5nAblzIYl-10" edge="1">
          <mxGeometry relative="1" as="geometry">
            <mxPoint x="430" y="380" as="targetPoint" />
            <Array as="points">
              <mxPoint x="381" y="380" />
              <mxPoint x="430" y="380" />
            </Array>
          </mxGeometry>
        </mxCell>
        <mxCell id="jjxcdkxq4oABtmEfKF7z-78" style="edgeStyle=orthogonalEdgeStyle;rounded=0;orthogonalLoop=1;jettySize=auto;html=1;exitX=0.5;exitY=1;exitDx=0;exitDy=0;entryX=0.25;entryY=1;entryDx=0;entryDy=0;jumpStyle=arc;" parent="1" source="_XvTzFoEMZY5nAblzIYl-10" target="_XvTzFoEMZY5nAblzIYl-27" edge="1">
          <mxGeometry relative="1" as="geometry">
            <Array as="points">
              <mxPoint x="361" y="500" />
              <mxPoint x="430" y="500" />
              <mxPoint x="430" y="820" />
              <mxPoint x="499" y="820" />
            </Array>
          </mxGeometry>
        </mxCell>
        <mxCell id="_XvTzFoEMZY5nAblzIYl-10" value="CT11&lt;div&gt;(main R)&lt;br&gt;&lt;/div&gt;" style="rounded=0;whiteSpace=wrap;html=1;fillColor=#fff2cc;strokeColor=#d6b656;" parent="1" vertex="1">
          <mxGeometry x="321" y="400.9" width="80" height="80" as="geometry" />
        </mxCell>
        <mxCell id="jjxcdkxq4oABtmEfKF7z-52" style="edgeStyle=orthogonalEdgeStyle;rounded=0;orthogonalLoop=1;jettySize=auto;html=1;exitX=0.25;exitY=0;exitDx=0;exitDy=0;startArrow=classic;startFill=1;endArrow=diamond;endFill=1;" parent="1" source="_XvTzFoEMZY5nAblzIYl-11" edge="1">
          <mxGeometry relative="1" as="geometry">
            <mxPoint x="450" y="380" as="targetPoint" />
            <Array as="points">
              <mxPoint x="499" y="380" />
              <mxPoint x="450" y="380" />
            </Array>
          </mxGeometry>
        </mxCell>
        <mxCell id="jjxcdkxq4oABtmEfKF7z-79" style="edgeStyle=orthogonalEdgeStyle;rounded=0;orthogonalLoop=1;jettySize=auto;html=1;exitX=0.5;exitY=1;exitDx=0;exitDy=0;entryX=0.75;entryY=1;entryDx=0;entryDy=0;jumpStyle=arc;" parent="1" source="_XvTzFoEMZY5nAblzIYl-11" target="_XvTzFoEMZY5nAblzIYl-27" edge="1">
          <mxGeometry relative="1" as="geometry">
            <Array as="points">
              <mxPoint x="519" y="500" />
              <mxPoint x="590" y="500" />
              <mxPoint x="590" y="821" />
              <mxPoint x="544" y="821" />
            </Array>
          </mxGeometry>
        </mxCell>
        <mxCell id="_XvTzFoEMZY5nAblzIYl-11" value="CT21&lt;div&gt;(main R)&lt;br&gt;&lt;/div&gt;" style="rounded=0;whiteSpace=wrap;html=1;fillColor=#fff2cc;strokeColor=#d6b656;" parent="1" vertex="1">
          <mxGeometry x="479" y="400.9" width="80" height="80" as="geometry" />
        </mxCell>
        <mxCell id="jjxcdkxq4oABtmEfKF7z-56" style="edgeStyle=orthogonalEdgeStyle;rounded=0;orthogonalLoop=1;jettySize=auto;html=1;exitX=0.25;exitY=1;exitDx=0;exitDy=0;startArrow=classic;startFill=1;endArrow=diamond;endFill=1;" parent="1" source="_XvTzFoEMZY5nAblzIYl-12" edge="1">
          <mxGeometry relative="1" as="geometry">
            <mxPoint x="659" y="520" as="targetPoint" />
          </mxGeometry>
        </mxCell>
        <mxCell id="jjxcdkxq4oABtmEfKF7z-75" style="edgeStyle=orthogonalEdgeStyle;rounded=0;orthogonalLoop=1;jettySize=auto;html=1;exitX=0.5;exitY=0;exitDx=0;exitDy=0;entryX=0.75;entryY=0;entryDx=0;entryDy=0;" parent="1" source="_XvTzFoEMZY5nAblzIYl-12" target="_XvTzFoEMZY5nAblzIYl-7" edge="1">
          <mxGeometry relative="1" as="geometry">
            <Array as="points">
              <mxPoint x="679" y="380" />
              <mxPoint x="610" y="380" />
              <mxPoint x="610" y="220" />
              <mxPoint x="539" y="220" />
            </Array>
          </mxGeometry>
        </mxCell>
        <mxCell id="jjxcdkxq4oABtmEfKF7z-88" style="edgeStyle=orthogonalEdgeStyle;rounded=0;orthogonalLoop=1;jettySize=auto;html=1;exitX=0.75;exitY=1;exitDx=0;exitDy=0;startArrow=classic;startFill=1;endArrow=box;endFill=0;" parent="1" source="_XvTzFoEMZY5nAblzIYl-12" edge="1">
          <mxGeometry relative="1" as="geometry">
            <mxPoint x="699" y="520" as="targetPoint" />
          </mxGeometry>
        </mxCell>
        <mxCell id="_XvTzFoEMZY5nAblzIYl-12" value="CT31&lt;div&gt;(&lt;span style=&quot;background-color: initial;&quot;&gt;BL scale w&lt;/span&gt;&lt;span style=&quot;background-color: initial;&quot;&gt;)&lt;/span&gt;&lt;/div&gt;" style="rounded=0;whiteSpace=wrap;html=1;fillColor=#f8cecc;strokeColor=#b85450;" parent="1" vertex="1">
          <mxGeometry x="639" y="400.9" width="80" height="80" as="geometry" />
        </mxCell>
        <mxCell id="jjxcdkxq4oABtmEfKF7z-66" style="edgeStyle=orthogonalEdgeStyle;rounded=0;orthogonalLoop=1;jettySize=auto;html=1;exitX=0.5;exitY=1;exitDx=0;exitDy=0;entryX=0.25;entryY=1;entryDx=0;entryDy=0;jumpStyle=arc;" parent="1" source="_XvTzFoEMZY5nAblzIYl-13" target="_XvTzFoEMZY5nAblzIYl-23" edge="1">
          <mxGeometry relative="1" as="geometry">
            <Array as="points">
              <mxPoint x="201" y="660" />
              <mxPoint x="300" y="660" />
              <mxPoint x="300" y="821" />
              <mxPoint x="339" y="821" />
            </Array>
          </mxGeometry>
        </mxCell>
        <mxCell id="jjxcdkxq4oABtmEfKF7z-90" style="edgeStyle=orthogonalEdgeStyle;rounded=0;orthogonalLoop=1;jettySize=auto;html=1;exitX=0.25;exitY=0;exitDx=0;exitDy=0;startArrow=classic;startFill=1;endArrow=oval;endFill=1;" parent="1" source="_XvTzFoEMZY5nAblzIYl-13" edge="1">
          <mxGeometry relative="1" as="geometry">
            <mxPoint x="130" y="540" as="targetPoint" />
            <Array as="points">
              <mxPoint x="181" y="540" />
            </Array>
          </mxGeometry>
        </mxCell>
        <mxCell id="_XvTzFoEMZY5nAblzIYl-13" value="CT00&lt;div&gt;(main C)&lt;/div&gt;" style="rounded=0;whiteSpace=wrap;html=1;fillColor=#fff2cc;strokeColor=#d6b656;" parent="1" vertex="1">
          <mxGeometry x="161" y="560.9000000000001" width="80" height="80" as="geometry" />
        </mxCell>
        <mxCell id="jjxcdkxq4oABtmEfKF7z-81" style="edgeStyle=orthogonalEdgeStyle;rounded=0;orthogonalLoop=1;jettySize=auto;html=1;exitX=0.5;exitY=0;exitDx=0;exitDy=0;entryX=0.5;entryY=0;entryDx=0;entryDy=0;jumpStyle=arc;" parent="1" source="_XvTzFoEMZY5nAblzIYl-14" target="_XvTzFoEMZY5nAblzIYl-15" edge="1">
          <mxGeometry relative="1" as="geometry" />
        </mxCell>
        <mxCell id="_XvTzFoEMZY5nAblzIYl-14" value="CT10&lt;div&gt;(sub)&lt;/div&gt;" style="rounded=0;whiteSpace=wrap;html=1;fillColor=#d5e8d4;strokeColor=#82b366;" parent="1" vertex="1">
          <mxGeometry x="321" y="560.9000000000001" width="80" height="80" as="geometry" />
        </mxCell>
        <mxCell id="jjxcdkxq4oABtmEfKF7z-65" style="edgeStyle=orthogonalEdgeStyle;rounded=0;orthogonalLoop=1;jettySize=auto;html=1;exitX=0.5;exitY=1;exitDx=0;exitDy=0;jumpStyle=arc;" parent="1" source="_XvTzFoEMZY5nAblzIYl-15" target="_XvTzFoEMZY5nAblzIYl-38" edge="1">
          <mxGeometry relative="1" as="geometry">
            <Array as="points">
              <mxPoint x="519" y="670" />
              <mxPoint x="610" y="670" />
              <mxPoint x="610" y="840" />
              <mxPoint x="516" y="840" />
            </Array>
          </mxGeometry>
        </mxCell>
        <mxCell id="_XvTzFoEMZY5nAblzIYl-15" value="CT20&lt;div&gt;(mean)&lt;/div&gt;" style="rounded=0;whiteSpace=wrap;html=1;fillColor=#dae8fc;strokeColor=#6c8ebf;" parent="1" vertex="1">
          <mxGeometry x="479" y="560.9000000000001" width="80" height="80" as="geometry" />
        </mxCell>
        <mxCell id="jjxcdkxq4oABtmEfKF7z-53" style="edgeStyle=orthogonalEdgeStyle;rounded=0;orthogonalLoop=1;jettySize=auto;html=1;exitX=0.75;exitY=0;exitDx=0;exitDy=0;startArrow=classic;startFill=1;endArrow=diamond;endFill=1;" parent="1" source="_XvTzFoEMZY5nAblzIYl-18" edge="1">
          <mxGeometry relative="1" as="geometry">
            <mxPoint x="780" y="540" as="targetPoint" />
            <Array as="points">
              <mxPoint x="699" y="540" />
              <mxPoint x="780" y="540" />
            </Array>
          </mxGeometry>
        </mxCell>
        <mxCell id="_XvTzFoEMZY5nAblzIYl-18" value="CT30&lt;div&gt;(main C)&lt;/div&gt;" style="rounded=0;whiteSpace=wrap;html=1;fillColor=#fff2cc;strokeColor=#d6b656;" parent="1" vertex="1">
          <mxGeometry x="639" y="560.9000000000001" width="80" height="80" as="geometry" />
        </mxCell>
        <mxCell id="jjxcdkxq4oABtmEfKF7z-33" style="edgeStyle=orthogonalEdgeStyle;rounded=0;orthogonalLoop=1;jettySize=auto;html=1;exitX=0.5;exitY=0;exitDx=0;exitDy=0;endArrow=oval;endFill=1;startArrow=none;startFill=0;" parent="1" source="_XvTzFoEMZY5nAblzIYl-19" edge="1">
          <mxGeometry relative="1" as="geometry">
            <mxPoint x="201" y="683" as="targetPoint" />
            <Array as="points">
              <mxPoint x="201" y="690" />
              <mxPoint x="201" y="690" />
            </Array>
          </mxGeometry>
        </mxCell>
        <mxCell id="jjxcdkxq4oABtmEfKF7z-38" value="(distribute, 5)" style="edgeLabel;html=1;align=center;verticalAlign=middle;resizable=0;points=[];" parent="jjxcdkxq4oABtmEfKF7z-33" vertex="1" connectable="0">
          <mxGeometry x="-0.8667" y="-1" relative="1" as="geometry">
            <mxPoint x="-1" y="-18" as="offset" />
          </mxGeometry>
        </mxCell>
        <mxCell id="_XvTzFoEMZY5nAblzIYl-19" value="MT0" style="shape=trapezoid;perimeter=trapezoidPerimeter;whiteSpace=wrap;html=1;fixedSize=1;direction=east;fillColor=#f5f5f5;strokeColor=#666666;gradientColor=#b3b3b3;" parent="1" vertex="1">
          <mxGeometry x="156" y="720.9000000000001" width="90" height="80" as="geometry" />
        </mxCell>
        <mxCell id="jjxcdkxq4oABtmEfKF7z-77" style="edgeStyle=orthogonalEdgeStyle;rounded=0;orthogonalLoop=1;jettySize=auto;html=1;exitX=0.5;exitY=0;exitDx=0;exitDy=0;entryX=0.25;entryY=1;entryDx=0;entryDy=0;jumpStyle=arc;" parent="1" source="_XvTzFoEMZY5nAblzIYl-23" target="_XvTzFoEMZY5nAblzIYl-14" edge="1">
          <mxGeometry relative="1" as="geometry">
            <Array as="points">
              <mxPoint x="361" y="700" />
              <mxPoint x="341" y="700" />
            </Array>
          </mxGeometry>
        </mxCell>
        <mxCell id="_XvTzFoEMZY5nAblzIYl-23" value="MT1" style="shape=trapezoid;perimeter=trapezoidPerimeter;whiteSpace=wrap;html=1;fixedSize=1;direction=east;fillColor=#f5f5f5;strokeColor=#666666;gradientColor=#b3b3b3;" parent="1" vertex="1">
          <mxGeometry x="316" y="720.9000000000001" width="90" height="80" as="geometry" />
        </mxCell>
        <mxCell id="jjxcdkxq4oABtmEfKF7z-80" style="edgeStyle=orthogonalEdgeStyle;rounded=0;orthogonalLoop=1;jettySize=auto;html=1;exitX=0.5;exitY=0;exitDx=0;exitDy=0;entryX=0.75;entryY=1;entryDx=0;entryDy=0;jumpStyle=arc;" parent="1" source="_XvTzFoEMZY5nAblzIYl-27" target="_XvTzFoEMZY5nAblzIYl-14" edge="1">
          <mxGeometry relative="1" as="geometry">
            <Array as="points">
              <mxPoint x="521" y="690" />
              <mxPoint x="381" y="690" />
            </Array>
          </mxGeometry>
        </mxCell>
        <mxCell id="_XvTzFoEMZY5nAblzIYl-27" value="MT2" style="shape=trapezoid;perimeter=trapezoidPerimeter;whiteSpace=wrap;html=1;fixedSize=1;direction=east;fillColor=#f5f5f5;strokeColor=#666666;gradientColor=#b3b3b3;" parent="1" vertex="1">
          <mxGeometry x="476" y="720.9000000000001" width="90" height="80" as="geometry" />
        </mxCell>
        <mxCell id="jjxcdkxq4oABtmEfKF7z-34" style="edgeStyle=orthogonalEdgeStyle;rounded=0;orthogonalLoop=1;jettySize=auto;html=1;exitX=0.5;exitY=0;exitDx=0;exitDy=0;endArrow=diamond;endFill=1;" parent="1" source="_XvTzFoEMZY5nAblzIYl-28" edge="1">
          <mxGeometry relative="1" as="geometry">
            <mxPoint x="680" y="680" as="targetPoint" />
            <Array as="points">
              <mxPoint x="680" y="721" />
            </Array>
          </mxGeometry>
        </mxCell>
        <mxCell id="jjxcdkxq4oABtmEfKF7z-39" value="(distribute, 5)" style="edgeLabel;html=1;align=center;verticalAlign=middle;resizable=0;points=[];" parent="jjxcdkxq4oABtmEfKF7z-34" vertex="1" connectable="0">
          <mxGeometry x="-0.8579" relative="1" as="geometry">
            <mxPoint x="-1" y="-19" as="offset" />
          </mxGeometry>
        </mxCell>
        <mxCell id="_XvTzFoEMZY5nAblzIYl-28" value="MT3" style="shape=trapezoid;perimeter=trapezoidPerimeter;whiteSpace=wrap;html=1;fixedSize=1;direction=east;fillColor=#f5f5f5;strokeColor=#666666;gradientColor=#b3b3b3;" parent="1" vertex="1">
          <mxGeometry x="636" y="720.9000000000001" width="90" height="80" as="geometry" />
        </mxCell>
        <mxCell id="jjxcdkxq4oABtmEfKF7z-4" style="edgeStyle=orthogonalEdgeStyle;rounded=0;orthogonalLoop=1;jettySize=auto;html=1;exitX=0.5;exitY=1;exitDx=0;exitDy=0;startArrow=classic;startFill=1;endArrow=none;endFill=0;" parent="1" source="_XvTzFoEMZY5nAblzIYl-33" edge="1">
          <mxGeometry relative="1" as="geometry">
            <mxPoint x="201" y="1071" as="targetPoint" />
          </mxGeometry>
        </mxCell>
        <mxCell id="jjxcdkxq4oABtmEfKF7z-8" value="mainA" style="edgeLabel;html=1;align=center;verticalAlign=middle;resizable=0;points=[];" parent="jjxcdkxq4oABtmEfKF7z-4" vertex="1" connectable="0">
          <mxGeometry x="0.8926" y="-1" relative="1" as="geometry">
            <mxPoint as="offset" />
          </mxGeometry>
        </mxCell>
        <mxCell id="jjxcdkxq4oABtmEfKF7z-13" value="[5, (9216/2 + 2)]" style="edgeLabel;html=1;align=center;verticalAlign=middle;resizable=0;points=[];" parent="jjxcdkxq4oABtmEfKF7z-4" vertex="1" connectable="0">
          <mxGeometry x="0.0791" y="-3" relative="1" as="geometry">
            <mxPoint as="offset" />
          </mxGeometry>
        </mxCell>
        <mxCell id="jjxcdkxq4oABtmEfKF7z-11" style="edgeStyle=orthogonalEdgeStyle;rounded=0;orthogonalLoop=1;jettySize=auto;html=1;exitX=0.5;exitY=0;exitDx=0;exitDy=0;entryX=0.5;entryY=1;entryDx=0;entryDy=0;" parent="1" source="_XvTzFoEMZY5nAblzIYl-33" target="_XvTzFoEMZY5nAblzIYl-19" edge="1">
          <mxGeometry relative="1" as="geometry" />
        </mxCell>
        <mxCell id="_XvTzFoEMZY5nAblzIYl-33" value="IT0" style="ellipse;whiteSpace=wrap;html=1;aspect=fixed;fillColor=#f5f5f5;fontColor=#333333;strokeColor=#666666;" parent="1" vertex="1">
          <mxGeometry x="161" y="880.9000000000001" width="80" height="80" as="geometry" />
        </mxCell>
        <mxCell id="jjxcdkxq4oABtmEfKF7z-6" style="edgeStyle=orthogonalEdgeStyle;rounded=0;orthogonalLoop=1;jettySize=auto;html=1;exitX=0.5;exitY=1;exitDx=0;exitDy=0;endArrow=none;endFill=0;startArrow=classic;startFill=1;" parent="1" source="_XvTzFoEMZY5nAblzIYl-34" edge="1">
          <mxGeometry relative="1" as="geometry">
            <mxPoint x="361" y="1071" as="targetPoint" />
          </mxGeometry>
        </mxCell>
        <mxCell id="jjxcdkxq4oABtmEfKF7z-10" value="lmn" style="edgeLabel;html=1;align=center;verticalAlign=middle;resizable=0;points=[];" parent="jjxcdkxq4oABtmEfKF7z-6" vertex="1" connectable="0">
          <mxGeometry x="0.9288" y="-1" relative="1" as="geometry">
            <mxPoint as="offset" />
          </mxGeometry>
        </mxCell>
        <mxCell id="jjxcdkxq4oABtmEfKF7z-15" value="[IMG_SIZE**2/CV, 3, CV]" style="edgeLabel;html=1;align=center;verticalAlign=middle;resizable=0;points=[];" parent="jjxcdkxq4oABtmEfKF7z-6" vertex="1" connectable="0">
          <mxGeometry x="0.1328" relative="1" as="geometry">
            <mxPoint as="offset" />
          </mxGeometry>
        </mxCell>
        <mxCell id="jjxcdkxq4oABtmEfKF7z-82" style="edgeStyle=orthogonalEdgeStyle;rounded=0;orthogonalLoop=1;jettySize=auto;html=1;exitX=0.5;exitY=0;exitDx=0;exitDy=0;endArrow=box;endFill=0;" parent="1" source="_XvTzFoEMZY5nAblzIYl-34" edge="1">
          <mxGeometry relative="1" as="geometry">
            <mxPoint x="361" y="840" as="targetPoint" />
          </mxGeometry>
        </mxCell>
        <mxCell id="_XvTzFoEMZY5nAblzIYl-34" value="IT1" style="ellipse;whiteSpace=wrap;html=1;aspect=fixed;fillColor=#f5f5f5;fontColor=#333333;strokeColor=#666666;" parent="1" vertex="1">
          <mxGeometry x="321" y="880.9000000000001" width="80" height="80" as="geometry" />
        </mxCell>
        <mxCell id="jjxcdkxq4oABtmEfKF7z-7" style="edgeStyle=orthogonalEdgeStyle;rounded=0;orthogonalLoop=1;jettySize=auto;html=1;exitX=0.5;exitY=1;exitDx=0;exitDy=0;" parent="1" source="_XvTzFoEMZY5nAblzIYl-38" edge="1">
          <mxGeometry relative="1" as="geometry">
            <mxPoint x="516" y="1071" as="targetPoint" />
          </mxGeometry>
        </mxCell>
        <mxCell id="jjxcdkxq4oABtmEfKF7z-16" value="IMG_SIZE**2" style="edgeLabel;html=1;align=center;verticalAlign=middle;resizable=0;points=[];" parent="jjxcdkxq4oABtmEfKF7z-7" vertex="1" connectable="0">
          <mxGeometry x="0.1325" y="2" relative="1" as="geometry">
            <mxPoint as="offset" />
          </mxGeometry>
        </mxCell>
        <mxCell id="_XvTzFoEMZY5nAblzIYl-38" value="IT2" style="ellipse;whiteSpace=wrap;html=1;aspect=fixed;fillColor=#f5f5f5;fontColor=#333333;strokeColor=#666666;" parent="1" vertex="1">
          <mxGeometry x="476" y="880.9000000000001" width="80" height="80" as="geometry" />
        </mxCell>
        <mxCell id="jjxcdkxq4oABtmEfKF7z-5" style="edgeStyle=orthogonalEdgeStyle;rounded=0;orthogonalLoop=1;jettySize=auto;html=1;exitX=0.5;exitY=1;exitDx=0;exitDy=0;endArrow=none;endFill=0;startArrow=classic;startFill=1;" parent="1" source="_XvTzFoEMZY5nAblzIYl-43" edge="1">
          <mxGeometry relative="1" as="geometry">
            <mxPoint x="681" y="1071" as="targetPoint" />
          </mxGeometry>
        </mxCell>
        <mxCell id="jjxcdkxq4oABtmEfKF7z-9" value="mainB" style="edgeLabel;html=1;align=center;verticalAlign=middle;resizable=0;points=[];" parent="jjxcdkxq4oABtmEfKF7z-5" vertex="1" connectable="0">
          <mxGeometry x="0.9648" relative="1" as="geometry">
            <mxPoint as="offset" />
          </mxGeometry>
        </mxCell>
        <mxCell id="jjxcdkxq4oABtmEfKF7z-14" value="[5, (9216/2 + 2)]" style="edgeLabel;html=1;align=center;verticalAlign=middle;resizable=0;points=[];" parent="jjxcdkxq4oABtmEfKF7z-5" vertex="1" connectable="0">
          <mxGeometry x="0.1327" y="1" relative="1" as="geometry">
            <mxPoint as="offset" />
          </mxGeometry>
        </mxCell>
        <mxCell id="jjxcdkxq4oABtmEfKF7z-12" style="edgeStyle=orthogonalEdgeStyle;rounded=0;orthogonalLoop=1;jettySize=auto;html=1;exitX=0.5;exitY=0;exitDx=0;exitDy=0;entryX=0.5;entryY=1;entryDx=0;entryDy=0;" parent="1" source="_XvTzFoEMZY5nAblzIYl-43" target="_XvTzFoEMZY5nAblzIYl-28" edge="1">
          <mxGeometry relative="1" as="geometry" />
        </mxCell>
        <mxCell id="_XvTzFoEMZY5nAblzIYl-43" value="IT3" style="ellipse;whiteSpace=wrap;html=1;aspect=fixed;fillColor=#f5f5f5;fontColor=#333333;strokeColor=#666666;" parent="1" vertex="1">
          <mxGeometry x="641" y="880.9000000000001" width="80" height="80" as="geometry" />
        </mxCell>
        <mxCell id="_XvTzFoEMZY5nAblzIYl-46" value="" style="endArrow=none;dashed=1;html=1;dashPattern=1 3;strokeWidth=2;rounded=0;" parent="1" edge="1">
          <mxGeometry width="50" height="50" relative="1" as="geometry">
            <mxPoint x="440" y="521" as="sourcePoint" />
            <mxPoint x="440" y="40" as="targetPoint" />
          </mxGeometry>
        </mxCell>
        <mxCell id="_XvTzFoEMZY5nAblzIYl-67" value="Compute Tiles A" style="shape=ext;double=1;rounded=1;whiteSpace=wrap;html=1;" parent="1" vertex="1">
          <mxGeometry x="221" width="120" height="27" as="geometry" />
        </mxCell>
        <mxCell id="_XvTzFoEMZY5nAblzIYl-68" value="Compute Tiles B" style="shape=ext;double=1;rounded=1;whiteSpace=wrap;html=1;" parent="1" vertex="1">
          <mxGeometry x="529" width="120" height="26.75" as="geometry" />
        </mxCell>
        <mxCell id="jjxcdkxq4oABtmEfKF7z-1" value="" style="endArrow=none;dashed=1;html=1;dashPattern=1 3;strokeWidth=2;rounded=0;" parent="1" edge="1">
          <mxGeometry width="50" height="50" relative="1" as="geometry">
            <mxPoint x="310" y="521" as="sourcePoint" />
            <mxPoint x="570" y="521" as="targetPoint" />
          </mxGeometry>
        </mxCell>
        <mxCell id="jjxcdkxq4oABtmEfKF7z-2" value="" style="endArrow=none;dashed=1;html=1;dashPattern=1 3;strokeWidth=2;rounded=0;" parent="1" edge="1">
          <mxGeometry width="50" height="50" relative="1" as="geometry">
            <mxPoint x="309" y="521" as="sourcePoint" />
            <mxPoint x="309" y="641" as="targetPoint" />
            <Array as="points">
              <mxPoint x="309" y="580" />
            </Array>
          </mxGeometry>
        </mxCell>
        <mxCell id="jjxcdkxq4oABtmEfKF7z-3" value="" style="endArrow=none;dashed=1;html=1;dashPattern=1 3;strokeWidth=2;rounded=0;" parent="1" edge="1">
          <mxGeometry width="50" height="50" relative="1" as="geometry">
            <mxPoint x="569" y="520.9" as="sourcePoint" />
            <mxPoint x="569" y="640.9" as="targetPoint" />
          </mxGeometry>
        </mxCell>
        <mxCell id="jjxcdkxq4oABtmEfKF7z-25" value="(broadcast, 2)" style="text;html=1;align=center;verticalAlign=middle;whiteSpace=wrap;rounded=0;fontSize=10;" parent="1" vertex="1">
          <mxGeometry x="290" y="831" width="70" height="30" as="geometry" />
        </mxCell>
        <mxCell id="jjxcdkxq4oABtmEfKF7z-46" style="edgeStyle=orthogonalEdgeStyle;rounded=0;orthogonalLoop=1;jettySize=auto;html=1;exitX=0.75;exitY=1;exitDx=0;exitDy=0;startArrow=classic;startFill=1;endArrow=oval;endFill=1;" parent="1" source="_XvTzFoEMZY5nAblzIYl-1" edge="1">
          <mxGeometry relative="1" as="geometry">
            <mxPoint x="221" y="200" as="targetPoint" />
          </mxGeometry>
        </mxCell>
        <mxCell id="jjxcdkxq4oABtmEfKF7z-57" value="output" style="text;html=1;align=center;verticalAlign=middle;resizable=0;points=[];autosize=1;strokeColor=none;fillColor=none;" parent="1" vertex="1">
          <mxGeometry x="486" y="1060" width="60" height="30" as="geometry" />
        </mxCell>
        <mxCell id="jjxcdkxq4oABtmEfKF7z-71" style="edgeStyle=orthogonalEdgeStyle;rounded=0;orthogonalLoop=1;jettySize=auto;html=1;exitX=0.5;exitY=0;exitDx=0;exitDy=0;entryX=0.168;entryY=-0.011;entryDx=0;entryDy=0;entryPerimeter=0;" parent="1" source="_XvTzFoEMZY5nAblzIYl-4" target="_XvTzFoEMZY5nAblzIYl-3" edge="1">
          <mxGeometry relative="1" as="geometry">
            <Array as="points">
              <mxPoint x="679" y="50" />
              <mxPoint x="492" y="50" />
            </Array>
          </mxGeometry>
        </mxCell>
        <mxCell id="jjxcdkxq4oABtmEfKF7z-76" style="edgeStyle=orthogonalEdgeStyle;rounded=0;orthogonalLoop=1;jettySize=auto;html=1;exitX=0.5;exitY=1;exitDx=0;exitDy=0;entryX=0.75;entryY=1;entryDx=0;entryDy=0;jumpStyle=arc;" parent="1" source="_XvTzFoEMZY5nAblzIYl-18" target="_XvTzFoEMZY5nAblzIYl-23" edge="1">
          <mxGeometry relative="1" as="geometry">
            <Array as="points">
              <mxPoint x="679" y="660" />
              <mxPoint x="640" y="660" />
              <mxPoint x="640" y="700" />
              <mxPoint x="420" y="700" />
              <mxPoint x="420" y="820" />
              <mxPoint x="384" y="820" />
            </Array>
          </mxGeometry>
        </mxCell>
      </root>
    </mxGraphModel>
  </diagram>
</mxfile>
